<?xml version="1.0" encoding="UTF-8"?>
<!DOCTYPE svg PUBLIC "-//W3C//DTD SVG 1.1//EN" "http://www.w3.org/Graphics/SVG/1.1/DTD/svg11.dtd">
<!-- Creator: CorelDRAW 2020 (64-Bit) -->
<svg xmlns="http://www.w3.org/2000/svg" xml:space="preserve" width="7.6313mm" height="10.7539mm" version="1.1" style="shape-rendering:geometricPrecision; text-rendering:geometricPrecision; image-rendering:optimizeQuality; fill-rule:evenodd; clip-rule:evenodd"
viewBox="0 0 49.09 69.18"
 xmlns:xlink="http://www.w3.org/1999/xlink"
 xmlns:xodm="http://www.corel.com/coreldraw/odm/2003">
 <defs>
  <style type="text/css">
   <![CDATA[
    .fil0 {fill:#DC5C8F}
   ]]>
  </style>
 </defs>
 <g id="Capa_x0020_1">
  <metadata id="CorelCorpID_0Corel-Layer"/>
  <g id="_2474035675344">
   <path class="fil0" d="M24.52 63.6c-1.4,-1.01 -9.73,-13.12 -10.82,-14.73 -1.62,-2.38 -3.34,-5.31 -4.79,-8.04 -5.17,-9.75 -8.42,-19.21 -1.36,-28.92 8.38,-11.53 26.02,-11.21 34.02,0.11 8.98,12.69 0.78,25.71 -6.28,36.97 -1.68,2.68 -3.44,5.08 -5.26,7.55 -0.77,1.05 -4.84,6.58 -5.5,7.05zm0 5.58c0.59,-0.55 1.25,-1.37 1.79,-2.06 8.16,-10.35 16.74,-21.19 21.2,-34.1 3.15,-9.14 1.41,-16.69 -3.38,-23.17 -3.5,-4.74 -10.27,-9.85 -19.6,-9.85 -7.8,0 -15.56,4.02 -19.71,9.92 -10.46,14.87 -1.86,28.8 6.98,42.52 1.86,2.89 10.67,14.83 12.74,16.74z"/>
   <path class="fil0" d="M18.75 25.6c-0.58,-3.49 1.91,-6.24 4.7,-6.74 7.68,-1.4 9.65,10.13 2.16,11.51 -3.59,0.66 -6.38,-1.9 -6.86,-4.76zm4.91 -10.31c-4.88,0.51 -9.04,4.81 -8.46,10.31 0.5,4.76 4.88,8.94 10.33,8.34 4.77,-0.53 8.91,-4.87 8.31,-10.35 -0.51,-4.69 -4.84,-8.85 -10.18,-8.3z"/>
  </g>
 </g>
</svg>
