<?xml version="1.0" encoding="UTF-8"?>
<!DOCTYPE svg PUBLIC "-//W3C//DTD SVG 1.1//EN" "http://www.w3.org/Graphics/SVG/1.1/DTD/svg11.dtd">
<!-- Creator: CorelDRAW 2020 (64-Bit) -->
<svg xmlns="http://www.w3.org/2000/svg" xml:space="preserve" width="8.9229mm" height="8.9676mm" version="1.1" style="shape-rendering:geometricPrecision; text-rendering:geometricPrecision; image-rendering:optimizeQuality; fill-rule:evenodd; clip-rule:evenodd"
viewBox="0 0 33.39 33.56"
 xmlns:xlink="http://www.w3.org/1999/xlink"
 xmlns:xodm="http://www.corel.com/coreldraw/odm/2003">
 <defs>
  <style type="text/css">
   <![CDATA[
    .fil0 {fill:#DC5C8F}
   ]]>
  </style>
 </defs>
 <g id="Capa_x0020_1">
  <metadata id="CorelCorpID_0Corel-Layer"/>
  <g id="_2474031335808">
   <path class="fil0" d="M4.03 29.54l1.11 -4.11c0.23,-0.78 0.31,-0.83 -0.09,-1.46 -3.36,-5.42 -2.46,-12.31 1.25,-16.33 5.66,-6.16 14.46,-6.4 20.17,-0.78 3.98,3.92 5.52,10.42 2.6,16.06 -0.49,0.95 -1.51,2.52 -2.24,3.16 -0.36,0.31 -0.56,0.62 -0.93,0.94 -2.38,2.1 -6.46,3.93 -10.92,3.34 -2.15,-0.29 -3.72,-0.94 -5.32,-1.85 -0.7,-0.4 -1.32,-0.04 -2.74,0.33 -0.72,0.19 -2.25,0.68 -2.89,0.71zm-4.03 4.02l7.05 -1.82c2.22,-0.6 1.36,-0.51 3.28,0.28 10.75,4.43 22.4,-3.11 23.04,-14.35 0.28,-4.88 -1.65,-9.76 -4.92,-12.9 -7.51,-7.2 -18.64,-5.84 -24.61,1.4 -3.51,4.26 -5.01,11.08 -2.36,17.09 0.79,1.8 1.03,1.16 0.44,3.24 -0.32,1.14 -0.62,2.3 -0.95,3.46 -0.31,1.1 -0.78,2.53 -0.97,3.62z"/>
   <path class="fil0" d="M25.24 21.07c-0.68,-0.6 -2.42,-1.39 -3.32,-1.85 -1.03,-0.53 -1.17,-0.27 -1.73,0.44 -0.19,0.25 -1.04,1.21 -1.23,1.3 -1.4,0.66 -7.22,-4.6 -6.31,-6.08 1.31,-2.12 2.02,-0.32 0.19,-5.18 -0.74,-1.96 -2.63,-1.25 -3.26,-0.65 -4.46,4.19 2.34,11.78 5.3,13.7 1.33,0.86 4.17,2.33 6.07,2.42 2.33,0.11 4.76,-1.63 4.29,-4.09z"/>
  </g>
 </g>
</svg>
